<?xml version="1.0" encoding="UTF-8" standalone="no"?>
<svg
   xmlns:dc="http://purl.org/dc/elements/1.1/"
   xmlns:cc="http://creativecommons.org/ns#"
   xmlns:rdf="http://www.w3.org/1999/02/22-rdf-syntax-ns#"
   xmlns:svg="http://www.w3.org/2000/svg"
   xmlns="http://www.w3.org/2000/svg"
   xmlns:sodipodi="http://sodipodi.sourceforge.net/DTD/sodipodi-0.dtd"
   xmlns:inkscape="http://www.inkscape.org/namespaces/inkscape"
   aria-hidden="true"
   focusable="false"
   data-prefix="fas"
   data-icon="check-circle"
   class="svg-inline--fa fa-check-circle fa-w-16"
   role="img"
   viewBox="0 0 512 512"
   version="1.1"
   id="svg46"
   sodipodi:docname="check-circle-solid.svg"
   inkscape:version="1.0.1 (3bc2e813f5, 2020-09-07)">
  <metadata
     id="metadata52">
    <rdf:RDF>
      <cc:Work
         rdf:about="">
        <dc:format>image/svg+xml</dc:format>
        <dc:type
           rdf:resource="http://purl.org/dc/dcmitype/StillImage" />
      </cc:Work>
    </rdf:RDF>
  </metadata>
  <defs
     id="defs50" />
  <sodipodi:namedview
     pagecolor="#ffffff"
     bordercolor="#666666"
     borderopacity="1"
     objecttolerance="10"
     gridtolerance="10"
     guidetolerance="10"
     inkscape:pageopacity="0"
     inkscape:pageshadow="2"
     inkscape:window-width="1280"
     inkscape:window-height="961"
     id="namedview48"
     showgrid="false"
     inkscape:zoom="1.4355469"
     inkscape:cx="256"
     inkscape:cy="256"
     inkscape:window-x="-8"
     inkscape:window-y="-8"
     inkscape:window-maximized="1"
     inkscape:current-layer="svg46" />
  <path
     fill="currentColor"
     d="M504 256c0 136.967-111.033 248-248 248S8 392.967 8 256 119.033 8 256 8s248 111.033 248 248zM227.314 387.314l184-184c6.248-6.248 6.248-16.379 0-22.627l-22.627-22.627c-6.248-6.249-16.379-6.249-22.628 0L216 308.118l-70.059-70.059c-6.248-6.248-16.379-6.248-22.628 0l-22.627 22.627c-6.248 6.248-6.248 16.379 0 22.627l104 104c6.249 6.249 16.379 6.249 22.628.001z"
     id="path44" />
  <path
     style="fill:#000000;stroke-width:0.696599"
     d="M 235.79864,502.85613 C 189.91112,498.94866 145.35612,482.11597 108.65068,454.82015 83.89012,436.40708 62.100587,412.8926 45.987497,387.19629 39.601799,377.01271 28.759547,355.20523 24.570674,344.11973 c -21.5349977,-56.99058 -21.5349977,-119.24888 0,-176.23946 4.188873,-11.0855 15.031125,-32.89298 21.416823,-43.07656 19.685069,-31.392716 47.324587,-58.942225 79.400263,-79.141673 10.01716,-6.308245 31.12632,-16.782816 42.49251,-21.085201 90.21871,-34.1500093 191.06343,-13.329552 260.40986,53.764361 13.66195,13.218189 27.7811,30.608693 37.72237,46.462513 6.3857,10.18358 17.22795,31.99106 21.41683,43.07656 21.3541,56.51185 21.53966,118.13792 0.52653,174.85689 -4.36438,11.78038 -14.96912,33.18852 -21.90651,44.22338 -21.03581,33.46035 -49.60541,61.51924 -82.9201,81.43787 -39.01124,23.32455 -83.67195,35.51767 -128.73454,35.14665 -6.39655,-0.0527 -14.76478,-0.36268 -18.59607,-0.68893 z m -12.5014,-112.3952 c 2.686,-1.344 24.12838,-22.42159 97.26291,-95.60816 l 93.81729,-93.88406 1.15116,-4.03111 c 1.29368,-4.53015 0.9531,-8.39453 -1.08746,-12.33896 -1.8797,-3.63348 -27.64097,-28.98374 -30.76706,-30.27618 -3.32152,-1.37325 -9.61099,-1.37308 -12.93183,3.6e-4 -1.83043,0.75703 -24.90635,23.37864 -78.69418,77.14487 l -76.10432,76.07375 -36.04806,-36.02118 c -24.90693,-24.88835 -36.8485,-36.35165 -38.63794,-37.09045 -1.42443,-0.5881 -4.55913,-1.06633 -6.96599,-1.06273 -6.51594,0.01 -9.34019,1.99464 -24.00123,16.86827 -11.875708,12.04792 -12.731891,13.09299 -13.834892,16.88719 -1.555553,5.35091 -0.635813,10.32026 2.756469,14.89327 1.322443,1.78273 25.855823,26.65745 54.518613,55.27715 40.08862,40.02834 52.83752,52.36183 55.24887,53.44865 4.46021,2.01025 9.95449,1.90254 14.31765,-0.28068 z"
     id="path54" />
</svg>
