<?xml version="1.0" encoding="UTF-8" standalone="no"?>
<svg
   xmlns:dc="http://purl.org/dc/elements/1.1/"
   xmlns:cc="http://creativecommons.org/ns#"
   xmlns:rdf="http://www.w3.org/1999/02/22-rdf-syntax-ns#"
   xmlns:svg="http://www.w3.org/2000/svg"
   xmlns="http://www.w3.org/2000/svg"
   xmlns:sodipodi="http://sodipodi.sourceforge.net/DTD/sodipodi-0.dtd"
   xmlns:inkscape="http://www.inkscape.org/namespaces/inkscape"
   aria-hidden="true"
   focusable="false"
   data-prefix="fas"
   data-icon="question-circle"
   class="svg-inline--fa fa-question-circle fa-w-16"
   role="img"
   viewBox="0 0 512 512"
   version="1.1"
   id="svg74"
   sodipodi:docname="question-circle-solid.svg"
   inkscape:version="1.0.1 (3bc2e813f5, 2020-09-07)">
  <metadata
     id="metadata80">
    <rdf:RDF>
      <cc:Work
         rdf:about="">
        <dc:format>image/svg+xml</dc:format>
        <dc:type
           rdf:resource="http://purl.org/dc/dcmitype/StillImage" />
      </cc:Work>
    </rdf:RDF>
  </metadata>
  <defs
     id="defs78" />
  <sodipodi:namedview
     pagecolor="#ffffff"
     bordercolor="#666666"
     borderopacity="1"
     objecttolerance="10"
     gridtolerance="10"
     guidetolerance="10"
     inkscape:pageopacity="0"
     inkscape:pageshadow="2"
     inkscape:window-width="1280"
     inkscape:window-height="961"
     id="namedview76"
     showgrid="false"
     inkscape:zoom="1.4355469"
     inkscape:cx="256"
     inkscape:cy="256"
     inkscape:window-x="-8"
     inkscape:window-y="-8"
     inkscape:window-maximized="1"
     inkscape:current-layer="svg74"
     inkscape:document-rotation="0" />
  <path
     style="fill:#ffffff;stroke-width:0.696599"
     d="m 222.16041,309.79567 c -1.29271,-0.87116 -3.0936,-2.67361 -4.00198,-4.00545 -1.59603,-2.34005 -1.64016,-2.76134 -1.31141,-12.52219 0.51155,-15.18851 3.80359,-24.79072 12.41939,-36.22475 7.53731,-10.00276 18.41156,-18.26772 40.31726,-30.64311 21.19873,-11.97598 27.62092,-17.06066 31.49959,-24.93936 1.97665,-4.01513 2.26055,-5.27881 2.2159,-9.86292 -0.0785,-8.05881 -2.04443,-12.39057 -8.56974,-18.88276 -8.71689,-8.67264 -20.7783,-13.63827 -34.89813,-14.36738 -12.82207,-0.6621 -24.2486,2.21806 -33.83443,8.5283 -5.32829,3.50755 -15.25328,13.39057 -22.42785,22.333 -4.31756,5.38144 -6.32686,7.31731 -8.49552,8.18503 -3.79336,1.51781 -5.47999,1.43487 -9.13774,-0.44934 -3.77232,-1.94322 -34.9604,-25.48383 -38.04077,-28.71297 -2.77065,-2.90447 -4.01186,-7.1184 -3.08522,-10.4744 2.17505,-7.87737 24.67695,-33.48733 37.69908,-42.90624 19.05244,-13.78063 38.64558,-21.103837 63.29412,-23.657055 11.22231,-1.162461 30.54518,-0.456809 39.38034,1.438132 47.04194,10.089423 83.12058,42.747693 92.1064,83.374393 1.6675,7.53912 1.64991,25.57124 -0.0325,33.32129 -3.32519,15.31744 -9.00871,26.13387 -19.54933,37.20476 -7.43589,7.80996 -16.57437,14.51697 -33.03136,24.24274 -7.50487,4.43523 -15.75034,9.60808 -18.32328,11.49523 -7.55348,5.54015 -10.92792,11.29757 -10.97837,18.73113 -0.0204,3.00896 -2.28155,6.60125 -5.53526,8.79392 l -2.35036,1.58392 H 256 224.51079 Z"
     id="path82" />
  <path
     style="fill:#000000;stroke-width:0.696599"
     d="m 246.94422,428.7129 c -9.29616,-2.03487 -19.91185,-8.32585 -25.57834,-15.15802 -8.98327,-10.83125 -12.82208,-25.62771 -10.03811,-38.69121 3.58313,-16.81343 16.91244,-30.67434 33.60292,-34.94304 15.61353,-3.99327 31.36943,0.46779 43.20173,12.23196 9.5069,9.45214 14.01443,21.04206 13.2799,34.14567 -0.9357,16.69225 -10.39819,30.97363 -25.61033,38.65269 -8.26207,4.17068 -20.00001,5.70086 -28.85777,3.76195 z"
     id="path86" />
  <path
     style="fill:#ffffff;stroke-width:0.696599"
     d="m 246.24762,428.09539 c -11.94696,-3.07374 -23.51638,-11.58817 -29.15508,-21.45647 -5.31745,-9.30609 -7.43757,-21.52745 -5.40766,-31.17226 1.81094,-8.60438 5.97706,-16.13504 12.55216,-22.68924 3.10228,-3.09241 7.41612,-6.62659 9.58631,-7.85373 14.77901,-8.35682 32.07528,-7.90018 46.0303,1.21525 13.95009,9.1122 22.26337,24.94545 21.14314,40.26863 -1.37219,18.76948 -14.10646,35.08304 -31.76142,40.68876 -5.89538,1.87187 -17.61554,2.38124 -22.98775,0.99906 z"
     id="path130" />
</svg>
