<?xml version="1.0" encoding="UTF-8" standalone="no"?>
<svg
   xmlns:dc="http://purl.org/dc/elements/1.1/"
   xmlns:cc="http://creativecommons.org/ns#"
   xmlns:rdf="http://www.w3.org/1999/02/22-rdf-syntax-ns#"
   xmlns:svg="http://www.w3.org/2000/svg"
   xmlns="http://www.w3.org/2000/svg"
   xmlns:sodipodi="http://sodipodi.sourceforge.net/DTD/sodipodi-0.dtd"
   xmlns:inkscape="http://www.inkscape.org/namespaces/inkscape"
   aria-hidden="true"
   focusable="false"
   data-prefix="fas"
   data-icon="sign-out-alt"
   class="svg-inline--fa fa-sign-out-alt fa-w-16"
   role="img"
   viewBox="0 0 512 512"
   version="1.1"
   id="svg100"
   sodipodi:docname="sign-out-alt-solid.svg"
   inkscape:version="1.0.1 (3bc2e813f5, 2020-09-07)">
  <metadata
     id="metadata106">
    <rdf:RDF>
      <cc:Work
         rdf:about="">
        <dc:format>image/svg+xml</dc:format>
        <dc:type
           rdf:resource="http://purl.org/dc/dcmitype/StillImage" />
      </cc:Work>
    </rdf:RDF>
  </metadata>
  <defs
     id="defs104" />
  <sodipodi:namedview
     pagecolor="#ffffff"
     bordercolor="#666666"
     borderopacity="1"
     objecttolerance="10"
     gridtolerance="10"
     guidetolerance="10"
     inkscape:pageopacity="0"
     inkscape:pageshadow="2"
     inkscape:window-width="1280"
     inkscape:window-height="961"
     id="namedview102"
     showgrid="false"
     inkscape:zoom="1.4355469"
     inkscape:cx="256"
     inkscape:cy="256"
     inkscape:window-x="-8"
     inkscape:window-y="-8"
     inkscape:window-maximized="1"
     inkscape:current-layer="svg100" />
  <path
     fill="currentColor"
     d="M497 273L329 441c-15 15-41 4.5-41-17v-96H152c-13.3 0-24-10.7-24-24v-96c0-13.3 10.7-24 24-24h136V88c0-21.4 25.9-32 41-17l168 168c9.3 9.4 9.3 24.6 0 34zM192 436v-40c0-6.6-5.4-12-12-12H96c-17.7 0-32-14.3-32-32V160c0-17.7 14.3-32 32-32h84c6.6 0 12-5.4 12-12V76c0-6.6-5.4-12-12-12H96c-53 0-96 43-96 96v192c0 53 43 96 96 96h84c6.6 0 12-5.4 12-12z"
     id="path98" />
  <path
     style="fill:#ffffff;stroke-width:0.696599"
     d="M 86.378231,447.11315 C 48.712738,443.20318 16.472571,417.00893 4.9969436,380.99308 0.0777689,365.55443 0.34829932,372.82847 0.34829932,256 c 0,-98.67986 0.0781037,-105.59288 1.26264708,-111.75771 8.4493146,-43.97358 42.0960646,-75.029203 86.0601376,-79.432663 9.639559,-0.965503 91.511506,-0.96145 94.990276,0.0047 3.32067,0.92224 6.74166,3.806919 7.95308,6.706282 0.73549,1.76026 0.95019,7.322153 0.95019,24.615378 0,20.881323 -0.09,22.517723 -1.37743,25.041263 -0.75759,1.48499 -2.4033,3.43168 -3.65714,4.32599 l -2.27972,1.62601 -47.36871,0.3483 c -47.067523,0.34609 -47.39528,0.35831 -51.548297,1.92226 -11.924494,4.49055 -19.664208,14.13331 -21.303113,26.54114 -0.453235,3.43134 -0.62832,40.33405 -0.492908,103.89034 l 0.210009,98.56871 1.654206,4.43423 c 3.316076,8.88899 11.322878,16.76568 20.280106,19.95055 3.617074,1.28609 6.479774,1.38249 51.199997,1.72411 l 47.36871,0.36186 2.27972,1.62601 c 1.25384,0.8943 2.89955,2.841 3.65714,4.32599 1.28741,2.52354 1.37743,4.15994 1.37743,25.04126 0,17.29323 -0.2147,22.85512 -0.95019,24.61538 -1.21142,2.89936 -4.63241,5.78404 -7.95308,6.70628 -3.20095,0.88899 -87.633303,0.82539 -96.283129,-0.0725 z"
     id="path108" />
  <path
     style="fill:#ffffff;stroke-width:0.696599"
     d="m 306.77055,446.95876 c -7.13233,-1.7895 -13.50706,-7.02644 -16.54155,-13.58914 -1.47231,-3.18415 -1.491,-3.79105 -1.68034,-54.58138 l -0.19148,-51.36141 -71.55818,-0.18689 -71.55818,-0.18688 -3.483,-1.85303 c -6.45949,-3.43661 -10.75686,-8.77359 -12.50816,-15.53414 -1.61052,-6.21707 -1.61052,-101.11471 0,-107.33178 1.7513,-6.76055 6.04867,-12.09753 12.50816,-15.53414 l 3.483,-1.85303 71.55818,-0.18688 71.55818,-0.18689 0.19148,-51.36141 0.19148,-51.36142 1.9299,-3.929866 c 5.94785,-12.111605 20.84291,-17.004212 32.482,-10.669422 2.31058,1.257576 29.36562,27.893981 90.04897,88.655628 97.22157,97.347 90.05618,89.383 90.05618,100.09332 0,10.70935 7.16873,2.74034 -90.10544,100.16452 -77.03866,77.15746 -87.26512,87.15691 -90.97488,88.95537 -4.98423,2.41631 -10.48702,3.07312 -15.40632,1.83887 z"
     id="path110" />
  <path
     style="fill:#000000;stroke-width:0.696599"
     d="m 304.33869,445.57639 c -6.56492,-2.70056 -10.18505,-5.91305 -13.36791,-11.8626 -1.53149,-2.86276 -1.53462,-2.95297 -1.88234,-54.18379 -0.19157,-28.22395 -0.60948,-51.57742 -0.9287,-51.8966 -0.31921,-0.31919 -32.60306,-0.69053 -71.7419,-0.82522 -69.42889,-0.23891 -71.22771,-0.27865 -73.88045,-1.63198 -4.21039,-2.14798 -9.27676,-7.30683 -11.36248,-11.56991 l -1.89239,-3.86789 -0.65996,-26.98056 c -0.4165,-17.02752 -0.41548,-36.85354 0.003,-53.74408 l 0.66274,-26.76351 1.8896,-3.86222 c 2.08327,-4.25804 7.15119,-9.4172 11.35971,-11.56423 2.65274,-1.35333 4.45156,-1.39307 73.88045,-1.63198 39.13884,-0.13469 71.42269,-0.50597 71.7419,-0.82508 0.31922,-0.31911 0.68478,-23.51584 0.81236,-51.5483 l 0.23198,-50.9681 2.13583,-4.018219 c 4.27625,-8.045038 11.85952,-12.687817 20.73628,-12.695579 10.13971,-0.0089 3.70819,-5.804762 96.1752,86.670238 45.42534,45.42927 84.8023,85.26315 87.50438,88.51975 6.62169,7.98063 7.18845,9.23485 7.18845,15.9078 0,5.30625 -0.11385,5.69848 -2.838,9.77794 -1.5609,2.33747 -9.98861,11.69891 -18.72822,20.80319 -21.38985,22.28236 -149.71395,150.17658 -155.2015,154.68158 -7.03959,5.77914 -14.37476,7.14937 -21.83781,4.07935 z"
     id="path112" />
  <path
     style="fill:#000000;stroke-width:0.696599"
     d="m 87.07483,446.77097 c -0.957823,-0.1406 -4.092517,-0.59778 -6.965986,-1.01595 -7.355427,-1.07045 -18.77935,-4.89441 -26.75923,-8.95722 C 28.860343,424.32956 11.89057,403.42788 3.8385227,375.81497 0.87545891,365.65372 0.60139813,353.66468 0.85282238,245.20272 l 0.22849092,-98.56871 2.162404,-8.04454 C 12.313973,104.84644 34.583099,80.415464 65.787798,69.973719 80.739272,64.970645 83.890531,64.732075 135.63166,64.686123 l 46.11872,-0.04096 2.96452,1.636602 c 1.63048,0.900131 3.68195,2.701734 4.55882,4.003563 1.49503,2.219575 1.59803,3.087087 1.65411,13.931973 0.18507,35.791349 0.007,37.397199 -4.51158,40.781239 l -2.16591,1.62195 -48.41361,0.61363 -48.413601,0.61362 -5.275474,2.56824 c -9.42555,4.5886 -16.171845,13.26104 -18.034858,23.18402 -0.565262,3.01076 -0.727282,32.52372 -0.579364,105.53469 l 0.205343,101.35511 2.376325,4.87619 c 3.174159,6.51333 9.871132,13.21677 16.401961,16.4178 l 4.84632,2.37537 48.443478,0.61117 48.44348,0.61117 2.16591,1.62095 c 4.51889,3.38189 4.69666,4.98873 4.51158,40.78025 -0.056,10.83158 -0.16051,11.71445 -1.64775,13.92136 -0.87337,1.296 -2.83256,3.06128 -4.35374,3.92285 l -2.7658,1.5665 -46.6721,-0.0834 c -25.66966,-0.0458 -47.455787,-0.19844 -48.41361,-0.33903 z"
     id="path114" />
  <path
     style="fill:#ffffff;stroke-width:0.696599"
     d="m 303.38936,443.7471 c -5.27831,-2.54328 -8.69264,-5.50664 -11.21372,-9.73258 l -1.95671,-3.27991 -0.70477,-51.66475 c -0.38763,-28.41562 -0.96595,-51.92582 -1.28517,-52.2449 -0.31922,-0.31908 -31.35269,-0.79121 -68.96327,-1.04918 -37.61057,-0.25796 -70.05978,-0.6562 -72.10933,-0.88498 -6.04348,-0.67458 -12.05672,-5.72599 -16.21675,-13.62286 l -1.65134,-3.13469 v -52.9415 -52.9415 l 1.65134,-3.13469 c 3.8967,-7.39698 10.22844,-12.95022 15.55292,-13.64063 1.6484,-0.21376 34.08282,-0.60185 72.07648,-0.86244 37.99366,-0.26059 69.3406,-0.73488 69.65986,-1.05398 0.31927,-0.3191 0.79254,-23.59363 1.05172,-51.72117 l 0.47124,-51.140995 2.5674,-4.226402 c 4.72885,-7.784529 11.84474,-11.797921 20.91813,-11.797921 3.89478,0 4.74172,0.28022 8.5666,2.83438 2.33448,1.558908 13.10653,11.378133 23.93788,21.820498 23.74942,22.89651 146.01521,146.03363 150.85779,151.93288 5.05292,6.15549 5.71721,7.79487 5.71721,14.1093 0,6.71785 -0.78802,8.10471 -11.1799,19.67573 -8.61378,9.59117 -111.31697,112.76673 -143.8133,144.47474 -25.51824,24.89921 -26.5293,25.65509 -34.82993,26.03921 -4.23134,0.19581 -5.43535,-0.0437 -9.10438,-1.81166 z"
     id="path116" />
  <path
     style="fill:#ffffff;stroke-width:0.696599"
     d="M 80.457143,445.44043 C 77.392109,444.92481 71.943579,443.54189 68.349297,442.36726 40.868808,433.38654 20.162482,414.61975 8.8841035,388.47211 4.5893596,378.51523 2.849425,371.45792 2.0887472,360.90959 1.6885917,355.36064 1.402894,309.01318 1.3993128,249.06576 l -0.00612,-102.36825 2.1420471,-7.56225 C 9.1416855,119.34238 17.028995,105.4299 29.899748,92.630729 42.389451,80.210485 59.817765,70.815691 77.04746,67.215591 c 7.769882,-1.623498 29.5803,-2.372861 69.98958,-2.404703 l 34.53635,-0.02722 3.27855,2.171619 c 5.72636,3.792987 5.6743,3.53246 5.62095,28.130422 -0.0528,24.361581 -0.3447,26.415081 -4.16888,29.331931 l -2.43068,1.85396 -48.57339,0.65908 -48.573409,0.65907 -4.876191,2.52735 c -8.669093,4.49325 -15.731591,13.1896 -17.721544,21.82127 -0.457245,1.98335 -0.710234,39.1798 -0.721291,106.04956 l -0.01703,102.99473 2.478922,4.7174 c 3.23169,6.14992 10.145312,13.08942 16.19461,16.2552 l 4.662523,2.44007 48.58434,0.67487 48.58434,0.67487 2.41974,1.84562 c 3.81169,2.90733 4.10514,4.97681 4.15794,29.32359 0.0525,24.22749 0.0149,24.43719 -4.99861,27.84396 l -2.59225,1.76148 -48.42604,-0.0709 c -37.080299,-0.0543 -49.731708,-0.29055 -53.998848,-1.0084 z"
     id="path118" />
</svg>
