<?xml version="1.0" encoding="UTF-8" standalone="no"?>
<svg
   xmlns:dc="http://purl.org/dc/elements/1.1/"
   xmlns:cc="http://creativecommons.org/ns#"
   xmlns:rdf="http://www.w3.org/1999/02/22-rdf-syntax-ns#"
   xmlns:svg="http://www.w3.org/2000/svg"
   xmlns="http://www.w3.org/2000/svg"
   xmlns:sodipodi="http://sodipodi.sourceforge.net/DTD/sodipodi-0.dtd"
   xmlns:inkscape="http://www.inkscape.org/namespaces/inkscape"
   aria-hidden="true"
   focusable="false"
   data-prefix="fas"
   data-icon="trash-alt"
   class="svg-inline--fa fa-trash-alt fa-w-14"
   role="img"
   viewBox="0 0 448 512"
   version="1.1"
   id="svg12"
   sodipodi:docname="trash-alt-solid.svg"
   inkscape:version="1.0.1 (3bc2e813f5, 2020-09-07)">
  <metadata
     id="metadata18">
    <rdf:RDF>
      <cc:Work
         rdf:about="">
        <dc:format>image/svg+xml</dc:format>
        <dc:type
           rdf:resource="http://purl.org/dc/dcmitype/StillImage" />
      </cc:Work>
    </rdf:RDF>
  </metadata>
  <defs
     id="defs16" />
  <sodipodi:namedview
     pagecolor="#ffffff"
     bordercolor="#666666"
     borderopacity="1"
     objecttolerance="10"
     gridtolerance="10"
     guidetolerance="10"
     inkscape:pageopacity="0"
     inkscape:pageshadow="2"
     inkscape:window-width="1280"
     inkscape:window-height="961"
     id="namedview14"
     showgrid="false"
     inkscape:zoom="1.4355469"
     inkscape:cx="89.904762"
     inkscape:cy="256"
     inkscape:window-x="-8"
     inkscape:window-y="-8"
     inkscape:window-maximized="1"
     inkscape:current-layer="svg12" />
  <path
     fill="currentColor"
     d="M32 464a48 48 0 0 0 48 48h288a48 48 0 0 0 48-48V128H32zm272-256a16 16 0 0 1 32 0v224a16 16 0 0 1-32 0zm-96 0a16 16 0 0 1 32 0v224a16 16 0 0 1-32 0zm-96 0a16 16 0 0 1 32 0v224a16 16 0 0 1-32 0zM432 32H312l-9.4-18.7A24 24 0 0 0 281.1 0H166.8a23.72 23.72 0 0 0-21.4 13.3L136 32H16A16 16 0 0 0 0 48v32a16 16 0 0 0 16 16h416a16 16 0 0 0 16-16V48a16 16 0 0 0-16-16z"
     id="path10" />
  <path
     style="fill:#d40000;stroke-width:0.696599"
     d="m 75.27619,511.32991 c -11.377166,-1.22964 -20.110221,-5.48353 -28.615566,-13.93871 -4.799925,-4.77161 -6.546596,-7.10621 -8.874709,-11.86195 -5.888649,-12.02899 -5.323009,6.96577 -5.533409,-185.81769 L 32.065295,128.17415 H 224 415.93471 l -0.18721,171.53741 c -0.2104,192.78346 0.35523,173.7887 -5.53341,185.81769 -2.32812,4.75574 -4.07479,7.09034 -8.87471,11.86195 -6.60611,6.56715 -12.19497,9.93572 -20.96436,12.63584 l -5.21312,1.60514 -147.67891,0.0935 c -81.2234,0.0514 -149.716459,-0.12667 -152.2068,-0.39582 z m 56.35493,-63.46714 c 4.81668,-1.033 8.56322,-3.94808 10.77274,-8.382 l 1.8356,-3.68357 -0.0153,-115.67275 c -0.0152,-114.92551 -0.0245,-115.693 -1.43644,-118.80744 -1.76863,-3.90119 -3.70805,-6.01461 -7.12924,-7.76884 -6.40797,-3.28572 -14.15809,-2.06833 -19.25024,3.02382 -5.28477,5.28477 -4.94691,-3.61543 -4.74293,124.94049 0.17545,110.58706 0.23113,114.99822 1.48088,117.34466 3.10844,5.83615 7.01931,8.44226 14.51476,9.67227 0.26849,0.044 2.05507,-0.25593 3.97017,-0.66664 z m 99.32569,-1.13892 c 1.15443,-0.57983 3.26847,-2.17458 4.69786,-3.5439 5.08035,-4.86685 4.75216,4.11949 4.54936,-124.57086 l -0.18226,-115.66008 -2.10822,-3.40983 c -1.30665,-2.1134 -3.40468,-4.21138 -5.51816,-5.51804 -2.96404,-1.83253 -4.06188,-2.10821 -8.39539,-2.10821 -4.33351,0 -5.43135,0.27568 -8.39539,2.10821 -2.11348,1.30666 -4.21151,3.40464 -5.51816,5.51804 l -2.10822,3.40983 -0.18226,115.66008 c -0.20281,128.69341 -0.53092,119.70942 4.54936,124.56526 4.36014,4.1675 8.18867,5.59003 13.38699,4.97407 1.71903,-0.20368 4.07005,-0.84474 5.22449,-1.42457 z m 96.48809,-0.23186 c 2.89654,-1.47062 5.62119,-4.27836 7.40891,-7.63485 1.24975,-2.34644 1.30543,-6.7576 1.48088,-117.34466 0.20398,-128.55592 0.54184,-119.65572 -4.74293,-124.94049 -5.09215,-5.09215 -12.84227,-6.30954 -19.25024,-3.02382 -3.42119,1.75423 -5.36061,3.86765 -7.12924,7.76884 -1.41196,3.11444 -1.42124,3.88193 -1.43644,118.80744 l -0.0153,115.67275 1.77555,3.56306 c 3.98824,8.00336 13.86174,11.21736 21.90881,7.13173 z"
     id="path20" />
  <path
     style="fill:#d40000;stroke:#000000;stroke-opacity:1;stroke-width:0;stroke-miterlimit:4;stroke-dasharray:none"
     d="M 9.0347339,93.813607 C 4.8807832,91.621146 1.7340889,87.334787 0.73085729,82.502245 0.19761549,79.933628 0.0038804,72.716852 0.16478361,61.415573 0.37950624,46.334196 0.56706452,43.935994 1.6991947,41.795918 3.5001003,38.391651 6.1811134,35.658008 9.447619,33.895387 l 2.786395,-1.50355 62.176353,-0.192178 62.176353,-0.192178 5.50509,-10.9534 C 148.29459,8.7124637 151.00389,5.4824619 157.82313,2.2992978 l 4.17959,-1.95099848 58.49255,-0.20415425 C 259.37161,0.00845643 280.5892,0.1884564 283.76293,0.68087745 294.26238,2.309922 298.62774,6.3544884 306.12796,21.40238 l 5.28583,10.605101 62.1761,0.192178 c 59.12283,0.18274 62.29582,0.255946 64.61419,1.49075 3.41958,1.821329 6.14581,4.501872 7.88942,7.75721 1.387,2.589561 1.50988,4.000115 1.73939,19.967954 0.16255,11.309624 -0.0301,18.51616 -0.56375,21.086672 -1.00323,4.832542 -4.14992,9.118901 -8.30387,11.311362 l -3.07011,1.620407 H 224 12.104841 Z"
     id="path22" />
</svg>
